<svg xmlns="http://www.w3.org/2000/svg" xmlns:xlink="http://www.w3.org/1999/xlink" viewBox="0 0 216.41 247.58"><defs><style>.cls-1{fill:#112369;}.cls-2{fill:#8b5e3c;}.cls-3{fill:url(#linear-gradient);}.cls-4{fill:url(#linear-gradient-2);}.cls-5{fill:url(#linear-gradient-3);}</style><linearGradient id="linear-gradient" x1="102.21" y1="100.65" x2="216.41" y2="100.65" gradientUnits="userSpaceOnUse"><stop offset="0" stop-color="#8b5e3c"/><stop offset="1" stop-color="#112369"/></linearGradient><linearGradient id="linear-gradient-2" y1="205.57" x2="208.75" y2="205.57" gradientUnits="userSpaceOnUse"><stop offset="0" stop-color="#112369"/><stop offset="0.43" stop-color="#132468"/><stop offset="0.59" stop-color="#1a2766"/><stop offset="0.7" stop-color="#252d61"/><stop offset="0.79" stop-color="#36355b"/><stop offset="0.87" stop-color="#4c4053"/><stop offset="0.93" stop-color="#674d49"/><stop offset="0.99" stop-color="#875c3e"/><stop offset="1" stop-color="#8b5e3c"/></linearGradient><linearGradient id="linear-gradient-3" x1="86.44" y1="19.63" x2="-14.61" y2="163.6" xlink:href="#linear-gradient-2"/></defs><title>Asset 2</title><g id="Layer_2" data-name="Layer 2"><g id="Layer_1-2" data-name="Layer 1"><path class="cls-1" d="M62.94,116.47v-8.64a42.93,42.93,0,0,0,7,2.11,34.09,34.09,0,0,0,7.18.8q5.44,0,7.66-1T87,105.51a5.08,5.08,0,0,0-1-3.34A8,8,0,0,0,82.6,100q-2.32-.91-7.26-2.29Q68,95.72,65,92.67t-3-8.42q0-6.46,4.72-9.94T80.5,70.83a53.37,53.37,0,0,1,7.73.54,30.13,30.13,0,0,1,6,1.42v8.63a34.82,34.82,0,0,0-12.41-2.25,18.92,18.92,0,0,0-7.37,1.09,4,4,0,0,0-2.43,4,4.39,4.39,0,0,0,.91,2.9,7.43,7.43,0,0,0,3,1.92,62.37,62.37,0,0,0,6.64,2q8.13,2.18,11.24,5.62A12.62,12.62,0,0,1,97,105.51a11.69,11.69,0,0,1-4.79,9.9Q87.39,119,78,119T62.94,116.47Z"/><path class="cls-1" d="M141.12,130.47a29.27,29.27,0,0,1-4,.29q-5.73,0-8.52-3t-2.94-9q-17.85-2.39-17.85-23.58,0-12.63,5.62-18.46t17.09-5.85q11.47,0,17.09,5.85t5.62,18.46q0,22-19.23,23.73c0,1.88.48,3.18,1.31,3.88s4,1.05,5.9,1.05Zm-1-23.62q3.12-3.81,3.12-11.72,0-8.63-3-12.3t-9.72-3.66q-6.68,0-9.72,3.66t-3,12.3q0,7.91,3.12,11.72t9.65,3.81Q137,110.66,140.15,106.85Z"/><path class="cls-2" d="M22.91,141.77h5.57L32.55,160l4.4-14.7v-3.52h4.61L46.75,160l4.19-18.26h5.53l-6.24,27H44.86l-4.94-17.26L34.6,168.75H29.2Z"/><path class="cls-2" d="M63.55,141.77H82.9v4.4H69.2v6.91H81.35v4.36H69.2v7H82.9v4.36H63.55Z"/><path class="cls-2" d="M99.45,141.77h6.2l10.26,27H110l-2.56-6.49H97.56l-2.51,6.49H89.14Zm7.21,16.13L102.51,147,98.4,157.9Z"/><path class="cls-2" d="M123,141.77h5.66v22.62h13.28v4.36H123Z"/><path class="cls-2" d="M149.13,146.13h-8.29v-4.36H163v4.36h-8.25v22.62h-5.65Z"/><path class="cls-2" d="M169.28,141.77h5.65v11.31h11.77V141.77h5.66v27h-5.66V157.44H174.94v11.31h-5.65Z"/><path class="cls-3" d="M119.8,11.35l79.45,45.87c5,2.86,9.29,10.38,9.29,16.1v99.95a30.73,30.73,0,0,1,.2,3.45A30.11,30.11,0,0,1,196,201.31l7.16-4.13c7.42-4.28,13.22-14.34,13.22-22.9v-101c0-8.56-5.81-18.62-13.23-22.91L121.43,3.21A26.84,26.84,0,0,0,108.2,0a30.68,30.68,0,0,0-6,.59A30.13,30.13,0,0,1,119.8,11.35Z"/><path class="cls-4" d="M13.22,197.17,95,244.37a28.85,28.85,0,0,0,26.45,0l69.7-40.24,4.89-2.82a30.11,30.11,0,0,0,12.72-24.6,30.73,30.73,0,0,0-.2-3.45v1c0,5.71-4.34,13.24-9.29,16.1L172,206.12,117.5,237.56a21.11,21.11,0,0,1-18.59,0L19.79,191.88A30.17,30.17,0,0,1,0,163.56v10.71C0,182.83,5.81,192.89,13.22,197.17Z"/><path class="cls-5" d="M19.79,191.88l-2.63-1.52c-5-2.86-9.29-10.38-9.29-16.1v-101c0-5.72,4.34-13.24,9.29-16.1l49-28.27L98.91,10a21.11,21.11,0,0,1,18.59,0l2.31,1.33A30.13,30.13,0,0,0,102.21.59,23.79,23.79,0,0,0,95,3.21L68.4,18.55,13.22,50.41C5.81,54.69,0,64.75,0,73.31v90.25A30.17,30.17,0,0,0,19.79,191.88Z"/></g></g></svg>